<svg
  viewBox="0 0 1154.9451 2331.0745"
  width="1154.9451"
  height="2331.0745"
  xmlns="http://www.w3.org/2000/svg"
>
  <g transform="translate(228.18433, 677.39487)">
    <g transform="translate(-29.201106, -67.90126)">
      <path
        style="opacity:0.9;fill:#dfb36e"
        d="m 329.2624,1720.1624 c -2.58106,-0.6857 -5.00798,-2.5103 -7.84312,-5.8966 -2.32398,-2.7757 -4.94741,-4.9036 -6.04564,-4.9036 -1.06707,0 -4.16021,1.125 -6.87364,2.5 -2.71343,1.375 -6.05781,2.5 -7.43196,2.5 -3.53382,0 -9.00659,-5.1827 -10.4064,-9.8548 -0.65104,-2.173 -1.98579,-4.9414 -2.96612,-6.1521 -1.58387,-1.956 -2.19606,-2.087 -5.4956,-1.1759 -2.04225,0.5639 -5.51781,2.4545 -7.72347,4.2014 -5.35424,4.2407 -10.6735,4.9498 -15.36761,2.0487 -5.17688,-3.1995 -8.22891,-7.3151 -9.56984,-12.9048 -2.51377,-10.4785 -9.6779,-12.3586 -20.19153,-5.2989 -6.28278,4.2188 -9.58055,4.9488 -14.28191,3.1613 -3.86087,-1.4679 -6.10627,-6.1023 -7.50201,-15.4838 -1.98089,-13.3146 -6.52066,-16.6734 -13.81067,-10.2178 -8.4144,7.4513 -12.38667,8.4025 -18.355,4.3953 -4.42064,-2.968 -5.88157,-8.4218 -4.49763,-16.7899 1.17215,-7.0875 0.16446,-10.7544 -3.52432,-12.8249 -2.41993,-1.3582 -3.12745,-1.2064 -10.34059,2.2191 -8.9643,4.2571 -14.3216,4.7145 -19.34552,1.6515 -4.05904,-2.4748 -5.55615,-5.9914 -7.22028,-16.9603 -1.05653,-6.9639 -1.78316,-8.9816 -4.05156,-11.25 -3.61396,-3.6139 -5.93239,-3.4874 -13.48436,0.7359 -6.86307,3.838 -11.36003,4.3932 -16.88525,2.0847 -3.79525,-1.5858 -5.01705,-3.4285 -7.23591,-10.9133 -2.17095,-7.3231 -4.94031,-12.3815 -7.80696,-14.2598 -2.29988,-1.5069 -2.94243,-1.4737 -9.39237,0.4854 -12.37708,3.7594 -17.8512,2.3894 -21.54358,-5.3917 -6.80149,-14.3331 1.52596,-77.8353 17.35135,-132.3154 26.13484,-89.9711 77.42928,-198.517 143.94554,-304.6081 5.91093,-9.4277 7.81993,-13.2548 7.06525,-14.1641 -1.45991,-1.7591 -13.44304,-6.4177 -16.50795,-6.4177 -3.38399,0 -6.37465,-1.587 -9.42374,-5.0007 -1.375,-1.5394 -5.2,-4.258 -8.5,-6.0413 -75.93787,-41.0364 -150.94756,-113.092 -209.19671,-200.95802 -6.01611,-9.075 -11.80798,-17.9384 -12.87083,-19.6965 -20.40282,-33.7484 -27.67564,-46.7215 -40.02687,-71.3989 -25.139,-50.2271 -40.65801,-87.6607 -58.41547,-140.9046 -13.84825,-41.5226 -20.64681,-65.8667 -32.05692,-114.7886 -8.74526,-37.4962 -18.64445,-97.2467 -22.89823,-138.2114 -0.54256,-5.225 -1.64622,-15.8 -2.45258,-23.5 -4.1335,-39.4716 -5.08278,-63.553 -5.06538,-128.5 0.0136,-50.59209 0.37951,-68.68349 1.80034,-89 5.84357,-83.55757 17.84404,-160.77755 36.05426,-232 9.62421,-37.64147 13.43508,-50.65618 24.59626,-84 9.55819,-28.55494 15.6605,-45.14699 24.82548,-67.5 45.09446,-109.98354 104.55958,-202.90519 174.70607,-273 45.72223,-45.68854 90.57039,-78.27435 141.60518,-102.88761 42.21574,-20.35997 79.6797,-31.57472 127.3954,-38.13553 16.27003,-2.23709 58.30742,-3.08998 76.70682,-1.5563 73.05822,6.08979 141.29404,31.54493 207.39333,77.36738 28.92751,20.0536 53.58458,41.02119 80.97485,68.85842 87.8108,89.24369 158.8545,214.75721 203.3314,359.22693 10.2195,33.1952 18.349,63.36821 23.7439,88.12671 0.8389,3.85 2.4088,11.05 3.4887,16 13.2648,60.80064 22.2983,128.59863 27.0481,203 1.6997,26.6239 1.6997,124.37448 10e-5,151 -4.7592,74.5544 -13.6564,141.3076 -27.0567,203 -1.0752,4.95 -2.6399,12.15 -3.477,16 -2.9689,13.6541 -11.5753,47.2243 -16.109,62.8353 -36.1632,124.5214 -86.4531,228.87 -152.60509,316.6468 -35.45168,47.04072 -76.56284,89.26382 -117.83099,121.01792 -26.33483,20.2636 -60.95402,41.9934 -83.85842,52.6363 l -9.25,4.2982 0,4.5824 c 0,6.5078 -2.18572,10.0368 -8.06001,13.0135 -3.31727,1.681 -4.76365,2.9518 -4.27417,3.7552 0.40691,0.6679 3.50033,5.4894 6.87427,10.7144 33.50815,51.8919 77.54744,134.2817 98.61959,184.5 31.1509,74.2375 47.77189,131.2827 55.33259,189.908 0.84466,6.5495 2.21581,13.9112 3.04702,16.3595 2.48502,7.3194 3.61873,18.1263 2.51314,23.956 -1.37631,7.2573 -4.62352,11.8309 -10.49877,14.7874 -6.22434,3.1322 -9.06054,3.1242 -16.22833,-0.046 -8.98618,-3.9741 -13.32533,-1.8887 -13.32533,6.4041 0,4.8979 -5.41126,11.9486 -11.26013,14.6716 -6.83417,3.1818 -9.24135,3.0913 -18.85973,-0.7096 -12.9118,-5.1023 -16.28574,-2.5362 -17.73115,13.4852 -0.83531,9.259 -1.07767,10.0164 -4.2673,13.3353 -4.05573,4.2202 -7.86622,6.3482 -11.36732,6.3482 -1.42172,0 -5.98232,-1.8 -10.13468,-4 -8.48621,-4.4962 -9.53731,-4.6995 -11.92889,-2.3079 -1.70573,1.7057 -1.67288,5.6882 0.15522,18.8185 0.43907,3.1536 0.0979,4.5961 -1.59639,6.75 -1.86506,2.3711 -2.86839,2.7394 -7.46189,2.7394 -4.76116,0 -5.90057,-0.4608 -11.07627,-4.4799 -7.37722,-5.7285 -9.15307,-6.2829 -11.76331,-3.6727 -1.58111,1.5811 -2.1978,3.8602 -2.6665,9.8547 -0.33534,4.2888 -1.13553,8.7409 -1.77819,9.8934 -1.45273,2.6053 -10.84878,9.0859 -14.40577,9.9358 -2.83388,0.6772 -7.81965,-1.3615 -11.4643,-4.6879 -2.91463,-2.6601 -8.17218,-3.295 -12.4137,-1.499 -4.78758,2.0271 -6.46992,4.188 -8.33182,10.7019 -2.05522,7.1903 -5.16934,10.1141 -11.36525,10.6706 -4.34528,0.3903 -5.41344,0.011 -11.6809,-4.1436 -3.79405,-2.5153 -7.6618,-4.5733 -8.59501,-4.5733 -2.33624,0 -4.38745,2.5617 -7.03559,8.7867 -3.94391,9.2709 -9.73438,11.5046 -17.47113,6.7394 -5.71731,-3.5214 -8.01831,-3.2269 -12.32317,1.577 -5.02449,5.607 -9.85733,7.8969 -16.66625,7.8969 -5.53072,0 -5.61325,-0.045 -11.97381,-6.5 -3.63028,-3.6843 -7.26825,-6.5 -8.39816,-6.5 -2.0674,0 -3.91406,2.0424 -8.08964,8.947 -2.11742,3.5014 -2.93407,4.0568 -6,4.0807 -3.06666,0.024 -4.24321,-0.7461 -8.6574,-5.6666 -4.14814,-4.624 -5.69655,-5.6944 -8.23709,-5.6944 -3.57359,0 -6.45115,2.2211 -8.13069,6.2759 -1.97024,4.7565 -7.73289,6.1236 -16.26139,3.8576 z M 64.97131,884.21808 c 12.11578,-6.1292 24.58502,-12.9226 27.70943,-15.0963 13.48115,-9.3792 17.09344,-22.3339 10.78728,-38.6863 -5.4088,-14.0255 -13.81302,-24.7947 -22.82471,-29.2478 -3.87813,-1.9164 -6.25967,-2.297 -14.45186,-2.31 l -9.80855,-0.015 -25.5142,13 c -14.03282,7.15 -25.92796,13.4919 -26.43365,14.0931 -0.59424,0.7064 1.05828,4.6853 4.67236,11.25 3.07549,5.5863 5.83969,10.1569 6.14267,10.1569 0.30298,0 11.75733,-5.6535 25.45411,-12.5634 26.86623,-13.5538 29.73286,-14.4096 36.00204,-10.7482 6.62474,3.8691 9.77758,14.1447 6.19884,20.203 -2.20173,3.7273 -4.8042,5.3077 -29.90507,18.1616 -12.1,6.1962 -22.21604,11.4477 -22.4801,11.6699 -0.95248,0.8015 10.294,21.2771 11.68671,21.2771 0.40481,0 10.64892,-5.0148 22.7647,-11.1441 z m 664.90902,-1.6059 c 5.02048,-7.8162 28.61967,-51.4248 28.61967,-52.8859 0,-1.3046 -14.44045,-29.4003 -42.45791,-82.607 -3.69057,-7.0086 -7.06979,-12.9652 -7.50938,-13.2369 -1.00817,-0.6231 -9.03361,17.8641 -9.03014,20.8016 10e-4,1.198 1.57641,4.7882 3.5,7.9783 1.92359,3.19 3.49743,6.6488 3.49743,7.6861 0,3.4109 -10.1035,26.0138 -11.62818,26.0"
      />
    </g>
  </g>
</svg>
